<?xml version="1.0" encoding="utf-8"?>
<!-- Generator: Adobe Illustrator 20.1.0, SVG Export Plug-In . SVG Version: 6.00 Build 0)  -->
<svg version="1.1" id="Layer_1" xmlns:sketch="http://www.bohemiancoding.com/sketch/ns"
	 xmlns="http://www.w3.org/2000/svg" xmlns:xlink="http://www.w3.org/1999/xlink" x="0px" y="0px" viewBox="0 0 32 62"
	 style="enable-background:new 0 0 32 62;" xml:space="preserve">
<style type="text/css">
	.st0{fill:#505977;}
	.st1{fill:#FFFFFF;}
</style>
<title>icon-4</title>
<desc>Created with Sketch.</desc>
<path class="st0" d="M31.6,14.8C31.4,6.7,24.8,0.1,16.7,0.1l0,0c-8.3,0-15,6.7-15,15s6.7,15,15,15l0,0c8.1,0,14.7-6.5,14.9-14.6
	c0-0.1,0-0.2,0-0.3C31.6,15,31.6,14.9,31.6,14.8z M29.6,15L29.6,15c-0.2,0.5-2,1.3-5,1.8c0-0.6,0.1-1.2,0.1-1.8c0-5-1.2-9.3-3.2-12
	C26.3,5,29.6,9.7,29.6,15L29.6,15z M16.6,28L16.6,28c-2.3,0-4.8-3.4-5.7-8.7c1.9,0.2,3.8,0.3,5.7,0.3c1.9,0,3.8-0.1,5.7-0.3
	C21.4,24.6,19,28,16.6,28L16.6,28z M16.6,17.5c-2,0-3.9-0.1-5.9-0.3c-0.1-0.7-0.1-1.4-0.1-2.2c0-7.7,3.1-12.9,6-12.9l0,0
	c2.9,0,6,5.2,6,12.9c0,0.7,0,1.4-0.1,2.2C20.6,17.4,18.6,17.5,16.6,17.5L16.6,17.5z M11.8,3c-1.9,2.7-3.2,7-3.2,12
	c0,0.6,0,1.2,0.1,1.8c-3.1-0.6-4.8-1.3-5-1.8c0,0,0-0.1,0-0.1C3.7,9.7,7,5,11.8,3L11.8,3z M4,17.6c1.6,0.7,3.3,1.2,5,1.4
	c0.3,2.9,1.3,5.7,2.9,8.1C7.8,25.4,4.8,21.9,4,17.6L4,17.6z M21.5,27c1.6-2.4,2.6-5.2,2.9-8c1.7-0.2,3.4-0.7,4.9-1.3
	C28.4,21.9,25.5,25.4,21.5,27L21.5,27z"/>
<path class="st1" d="M30.9,46.2C30.8,38,24.2,31.5,16,31.5l0,0c-8.3,0-15,6.7-15,15s6.7,15,15,15l0,0c8.1,0,14.7-6.5,14.9-14.6
	c0-0.1,0-0.2,0-0.3C30.9,46.3,30.9,46.3,30.9,46.2z M28.9,46.4L28.9,46.4c-0.2,0.5-2,1.3-5,1.8c0-0.6,0.1-1.2,0.1-1.8
	c0-5-1.2-9.3-3.2-12C25.7,36.4,28.9,41.1,28.9,46.4L28.9,46.4z M16,59.3L16,59.3c-2.3,0-4.8-3.4-5.7-8.7c1.9,0.2,3.8,0.3,5.7,0.3
	c1.9,0,3.8-0.1,5.7-0.3C20.8,56,18.3,59.3,16,59.3L16,59.3z M16,48.9c-2,0-3.9-0.1-5.9-0.3c-0.1-0.7-0.1-1.4-0.1-2.2
	c0-7.7,3.1-12.9,6-12.9l0,0c2.9,0,6,5.2,6,12.9c0,0.7,0,1.4-0.1,2.2C19.9,48.8,18,48.9,16,48.9L16,48.9z M11.2,34.4
	c-1.9,2.7-3.2,7-3.2,12c0,0.6,0,1.2,0.1,1.8c-3.1-0.6-4.8-1.3-5-1.8c0,0,0-0.1,0-0.1C3.1,41,6.3,36.3,11.2,34.4L11.2,34.4z M3.3,49
	c1.6,0.7,3.3,1.2,5,1.4c0.3,2.9,1.3,5.7,2.9,8.1C7.1,56.8,4.2,53.3,3.3,49L3.3,49z M20.8,58.4c1.6-2.4,2.6-5.2,2.9-8
	c1.7-0.2,3.4-0.7,4.9-1.3C27.8,53.3,24.8,56.8,20.8,58.4L20.8,58.4z"/>
</svg>
